<?xml version="1.0" standalone="no"?>
<!DOCTYPE svg PUBLIC "-//W3C//DTD SVG 20010904//EN"
 "http://www.w3.org/TR/2001/REC-SVG-20010904/DTD/svg10.dtd">
<svg version="1.0" xmlns="http://www.w3.org/2000/svg"
 width="283.000000pt" height="283.000000pt" viewBox="0 0 283.000000 283.000000"
 preserveAspectRatio="xMidYMid meet">
<metadata>
Created by potrace 1.14, written by Peter Selinger 2001-2017
</metadata>
<g transform="translate(0.000000,283.000000) scale(0.100000,-0.100000)"
fill="#000000" stroke="none">
<path d="M1321 2794 c-1 -14 -61 -25 -61 -11 0 5 -6 4 -13 -2 -13 -10 -44 -18
-75 -20 -7 -1 -10 -5 -7 -11 3 -5 0 -7 -9 -4 -15 6 -136 -51 -190 -89 -17 -12
-55 -44 -83 -73 -29 -28 -55 -49 -58 -46 -3 3 -5 0 -5 -7 0 -7 -19 -40 -43
-74 -35 -51 -68 -113 -73 -137 0 -3 -6 -17 -12 -32 -25 -61 -41 -184 -36 -283
12 -236 -6 -328 -93 -467 -40 -65 -94 -170 -97 -191 -1 -7 -4 -16 -8 -22 -7
-13 -38 -139 -45 -185 -8 -49 -7 -227 1 -274 16 -98 47 -197 89 -286 17 -36
30 -68 29 -73 -1 -4 2 -7 8 -7 5 0 10 -6 10 -14 0 -8 3 -16 8 -18 4 -1 20 -22
36 -45 27 -41 166 -189 166 -178 0 4 12 -7 26 -22 14 -15 29 -27 32 -26 4 1
16 -6 28 -16 11 -10 35 -24 52 -32 18 -8 32 -17 32 -21 0 -5 3 -7 8 -6 4 1 21
-5 37 -12 17 -7 33 -14 37 -14 3 -1 10 -4 14 -8 4 -5 16 -8 26 -8 10 0 18 -5
18 -11 0 -6 6 -9 13 -6 6 2 19 1 28 -4 17 -8 54 -17 104 -24 17 -3 46 -8 65
-12 44 -10 186 -9 225 2 17 4 45 8 63 7 17 0 32 3 32 7 0 5 10 7 23 7 12 -1
28 3 36 8 8 6 21 11 30 12 24 1 101 35 101 45 0 5 7 6 15 2 9 -3 23 1 33 9 9
8 34 23 55 33 20 11 37 23 37 27 0 3 9 9 20 13 34 11 230 197 230 219 0 3 18
31 40 62 22 32 40 63 40 71 0 7 5 13 10 13 6 0 10 4 10 9 0 5 5 22 11 38 6 15
9 28 7 29 -2 0 2 7 9 15 9 12 16 32 39 114 34 121 38 308 9 435 -3 14 -8 36
-11 48 -3 13 -11 43 -20 65 -8 23 -16 47 -17 52 -1 6 -5 13 -10 16 -4 3 -9 14
-11 25 -2 11 -14 38 -27 59 -29 53 -73 140 -94 190 -33 79 -36 102 -39 315 -2
102 -6 192 -9 200 -4 8 -8 26 -10 40 -2 14 -7 32 -10 40 -4 8 -8 24 -10 35 -2
11 -9 31 -14 45 -6 14 -11 30 -13 35 -1 6 -7 17 -14 25 -7 8 -25 37 -41 65
-36 63 -156 183 -220 220 -28 16 -53 34 -57 40 -4 5 -8 7 -8 3 0 -4 -28 5 -62
20 -35 15 -73 27 -85 26 -13 -1 -23 3 -23 7 0 5 -22 9 -50 9 -27 0 -50 4 -50
8 0 10 -90 9 -107 -1 -6 -4 -14 -1 -16 5 -4 8 -6 9 -6 2z m189 -118 c14 -4 30
-8 35 -9 6 -2 15 -6 22 -10 6 -4 19 -4 29 0 12 4 15 3 10 -5 -4 -7 -1 -12 7
-12 22 0 117 -51 117 -63 0 -6 3 -8 6 -4 7 7 19 -2 85 -66 27 -27 62 -67 78
-90 38 -56 80 -150 87 -197 10 -61 13 -75 15 -75 1 0 3 -83 4 -185 1 -102 5
-200 9 -219 14 -70 48 -155 122 -300 41 -82 76 -159 78 -173 1 -13 5 -28 9
-34 14 -24 20 -77 23 -209 3 -143 -11 -245 -42 -307 -8 -16 -12 -28 -9 -28 3
0 -15 -40 -41 -90 -26 -49 -51 -90 -56 -90 -4 0 -8 -6 -8 -14 0 -19 -169 -187
-181 -180 -5 3 -9 -2 -9 -11 0 -9 -4 -14 -9 -11 -5 4 -11 3 -13 -2 -3 -7 -77
-56 -88 -58 -3 0 -25 -10 -50 -21 -72 -32 -86 -37 -130 -47 -14 -4 -36 -9 -50
-12 -14 -4 -51 -8 -83 -9 -32 -1 -60 -4 -62 -6 -9 -10 -192 10 -247 27 -9 3
-25 7 -36 9 -11 2 -39 13 -62 24 -24 11 -47 18 -51 15 -5 -3 -9 -1 -9 4 0 5
-13 15 -30 22 -16 7 -30 17 -30 22 0 5 -4 7 -8 4 -5 -3 -23 8 -40 23 -17 16
-33 27 -35 25 -6 -6 -157 144 -157 156 0 5 -5 10 -12 10 -6 0 -9 3 -5 6 5 6 0
14 -30 48 -43 49 -119 252 -130 351 -7 69 -10 190 -4 200 3 6 7 26 8 45 2 19
4 45 5 58 1 12 5 22 8 22 3 0 6 9 7 20 2 27 44 139 54 146 5 3 9 14 9 25 0 10
4 19 8 19 5 0 16 15 25 33 10 17 29 52 43 77 14 25 25 47 26 50 1 3 7 20 15
38 34 82 44 162 42 345 -2 172 9 285 31 312 5 6 9 13 9 17 3 23 35 88 43 88 5
0 7 4 4 8 -3 5 4 19 15 30 11 12 17 22 15 22 -8 0 108 112 139 135 16 11 30
18 33 17 3 -2 8 1 11 6 6 9 93 52 116 57 5 1 18 5 28 8 39 15 47 16 47 5 0 -8
5 -7 15 3 12 12 36 15 108 13 50 -1 103 -5 117 -8z"/>
<path d="M1265 2586 c-22 -6 -42 -13 -45 -16 -3 -3 -14 -7 -25 -8 -11 -2 -23
-8 -26 -14 -3 -5 -9 -9 -13 -8 -4 1 -29 -12 -54 -29 -49 -31 -119 -91 -109
-91 3 0 -5 -11 -18 -24 -37 -37 -90 -153 -102 -221 -7 -43 -9 -195 -2 -195 4
0 6 -8 4 -17 -1 -10 0 -22 4 -28 3 -5 6 -15 7 -20 1 -6 11 -32 23 -57 11 -26
21 -49 21 -52 0 -21 142 -166 163 -166 9 0 17 -7 17 -16 0 -10 6 -14 15 -10 8
3 15 2 15 -2 0 -4 18 -15 39 -24 l39 -17 -19 -39 c-41 -83 -21 -173 54 -244
15 -16 35 -28 43 -28 8 0 14 -4 14 -8 0 -8 22 -12 68 -15 12 0 22 -6 22 -11 0
-6 4 -5 9 3 5 7 20 14 35 14 14 0 26 3 26 8 0 5 6 9 13 9 8 0 24 9 37 20 13
11 26 20 30 20 10 0 38 64 46 106 11 59 9 86 -11 127 -18 38 -16 49 10 53 20
3 108 58 146 91 69 61 137 171 157 253 26 108 27 116 18 190 -17 135 -73 247
-169 336 -46 43 -135 101 -167 109 -43 11 -67 19 -75 24 -16 9 -197 7 -240 -3z
m185 -111 c8 -5 27 -10 44 -11 48 -5 56 -7 56 -15 0 -3 10 -9 23 -13 12 -3 24
-6 27 -7 3 -1 18 -15 35 -33 16 -17 31 -29 32 -26 0 3 12 -8 24 -25 13 -16 26
-32 30 -35 12 -9 49 -80 49 -95 0 -8 4 -15 8 -15 10 0 16 -54 16 -141 0 -83
-33 -177 -83 -239 -19 -25 -39 -47 -44 -48 -4 -2 -13 -9 -20 -16 -26 -26 -93
-63 -110 -60 -9 1 -15 -1 -12 -6 2 -4 -10 -11 -28 -15 -45 -11 -197 -13 -191
-3 3 4 -7 8 -22 8 -30 0 -144 58 -144 73 0 6 -3 8 -6 4 -11 -11 -122 134 -128
167 -2 6 -8 36 -14 66 -11 54 -10 130 3 180 10 40 13 55 14 62 1 4 7 13 14 20
6 7 19 26 27 43 22 43 94 110 151 139 27 15 49 24 49 21 0 -4 6 -3 13 2 34 22
161 34 187 18z m22 -983 c40 -99 -64 -179 -144 -110 -18 15 -29 28 -25 28 4 0
3 9 -3 20 -8 15 -7 28 5 54 35 73 138 78 167 8z"/>
<path d="M1345 2422 c-8 -19 -14 -51 -19 -100 -1 -18 -8 -38 -14 -44 -7 -7
-12 -20 -12 -29 0 -19 -98 -112 -110 -104 -5 3 -10 0 -12 -6 -2 -7 -17 -13
-33 -14 -17 -2 -31 -4 -32 -5 -2 -1 -12 -3 -23 -4 -24 -1 -60 -31 -60 -50 0
-8 5 -26 11 -39 10 -22 17 -24 75 -23 35 1 64 4 64 9 0 4 6 7 13 7 18 0 80 31
89 44 4 6 8 8 8 3 0 -30 129 132 136 171 1 8 6 21 10 30 3 9 9 43 11 75 4 45
1 63 -12 77 -21 23 -81 24 -90 2z"/>
<path d="M1435 2184 c-27 -29 -23 -48 19 -90 93 -93 296 -123 296 -44 0 30
-24 65 -45 65 -33 0 -125 26 -125 36 0 5 -5 9 -10 9 -6 0 -18 6 -26 13 -8 6
-20 17 -27 22 -25 21 -57 16 -82 -11z"/>
<path d="M1015 1471 c-80 -30 -116 -47 -110 -53 3 -3 -7 -11 -22 -17 -57 -25
-169 -187 -189 -273 -10 -41 -13 -182 -4 -197 6 -12 31 -15 104 -15 53 -1 96
3 96 7 0 5 3 6 8 3 4 -2 25 4 47 14 22 11 46 19 53 20 6 0 12 5 12 10 0 6 6
10 14 10 17 0 126 122 126 141 0 6 8 24 17 42 20 38 24 51 28 100 1 20 -2 37
-7 37 -5 0 -6 5 -3 10 7 12 -64 14 -81 2 -6 -4 -17 -25 -24 -47 -16 -50 -48
-115 -66 -133 -8 -7 -14 -18 -14 -24 0 -6 -3 -8 -7 -5 -3 4 -13 -2 -20 -13 -8
-11 -19 -18 -24 -15 -5 4 -9 3 -9 -2 0 -13 -53 -33 -100 -38 l-42 -4 6 42 c4
22 12 47 18 54 6 7 7 13 3 13 -4 0 -2 6 4 13 6 8 9 16 6 19 -3 3 1 11 10 18 8
7 15 19 15 27 0 8 5 11 10 8 6 -3 10 -2 10 4 0 17 76 85 117 105 21 10 46 22
56 27 10 6 22 7 27 4 4 -3 16 2 24 11 9 8 16 12 16 7 1 -17 24 33 25 52 0 25
-32 55 -59 55 -12 -1 -43 -9 -71 -19z"/>
<path d="M1661 1471 c-35 -35 -22 -83 26 -97 37 -10 33 -9 68 -24 17 -7 33
-13 38 -12 4 1 7 -2 7 -8 0 -5 5 -10 11 -10 21 0 107 -92 133 -142 23 -44 29
-63 41 -128 1 -8 -2 -18 -7 -21 -10 -6 -56 5 -90 22 -10 5 -24 9 -31 9 -27 0
-97 79 -127 144 -16 37 -30 73 -30 80 0 19 -20 33 -57 38 -28 4 -34 0 -47 -25
-9 -20 -11 -39 -6 -56 19 -61 34 -96 44 -103 6 -4 7 -8 3 -8 -9 0 31 -61 48
-72 5 -4 6 -8 1 -8 -5 0 2 -9 15 -21 13 -11 37 -32 52 -45 15 -14 31 -22 36
-20 4 3 17 -2 27 -12 10 -10 26 -17 34 -17 8 0 18 -3 21 -7 9 -13 220 -16 225
-4 26 69 -16 294 -62 332 -8 6 -14 16 -14 21 0 5 -18 29 -40 53 -22 24 -40 48
-40 53 0 6 -3 7 -6 4 -6 -6 -24 6 -82 54 -7 5 -17 7 -22 4 -6 -3 -10 -1 -10 4
0 6 -9 11 -20 11 -11 0 -20 4 -20 8 0 4 -8 8 -17 9 -10 1 -32 5 -50 9 -24 5
-36 1 -52 -15z"/>
<path d="M907 543 c-8 -10 -17 -25 -18 -33 -4 -19 18 -61 43 -80 11 -8 33 -27
50 -42 16 -16 36 -28 44 -28 8 0 14 -5 14 -11 0 -5 5 -7 10 -4 6 3 10 2 10 -4
0 -6 16 -13 35 -17 19 -3 35 -10 35 -16 0 -5 5 -6 10 -3 6 3 10 2 10 -3 0 -6
9 -8 20 -5 11 3 20 1 20 -5 0 -5 41 -10 99 -11 93 -2 100 0 115 21 19 27 20
48 3 72 -10 14 -31 20 -88 23 -103 6 -115 8 -132 21 -7 7 -16 9 -19 6 -3 -3
-21 4 -39 16 -19 11 -46 26 -62 33 -15 7 -24 16 -20 20 3 4 2 7 -3 7 -5 0 -25
14 -44 30 -40 34 -70 38 -93 13z"/>
</g>
</svg>
